<?xml version="1.0" standalone="no"?>
<!DOCTYPE svg PUBLIC "-//W3C//DTD SVG 20010904//EN"
 "http://www.w3.org/TR/2001/REC-SVG-20010904/DTD/svg10.dtd">
<svg version="1.0" xmlns="http://www.w3.org/2000/svg"
 width="814.000000pt" height="814.000000pt" viewBox="0 0 814.000000 814.000000"
 preserveAspectRatio="xMidYMid meet">
<metadata>
Created by potrace 1.11, written by Peter Selinger 2001-2013
</metadata>
<g transform="translate(0.000000,814.000000) scale(0.100000,-0.100000)"
fill="#000000" stroke="none">
<path d="M3868 8064 c-2 -2 -35 -6 -73 -9 -99 -7 -172 -15 -235 -25 -30 -5
-73 -11 -95 -15 -22 -3 -51 -7 -65 -10 -42 -9 -73 -15 -105 -21 -16 -3 -75
-16 -130 -30 -55 -14 -108 -27 -118 -29 -9 -2 -21 -6 -25 -9 -5 -3 -19 -7 -33
-10 -45 -9 -294 -97 -414 -148 -140 -58 -398 -186 -403 -199 -2 -5 -8 -9 -14
-9 -6 0 -58 -30 -117 -66 -58 -36 -115 -70 -125 -77 -65 -40 -210 -147 -321
-238 -45 -36 -92 -75 -105 -85 -13 -10 -89 -84 -170 -164 -168 -166 -258 -266
-388 -435 -30 -39 -112 -157 -131 -188 -13 -21 -28 -43 -35 -50 -6 -6 -25 -34
-41 -62 -16 -27 -38 -63 -47 -80 -10 -16 -24 -41 -30 -55 -7 -14 -15 -27 -18
-30 -22 -19 -237 -482 -256 -550 -2 -8 -24 -73 -49 -145 -24 -71 -44 -131 -44
-133 0 -1 -6 -26 -15 -55 -8 -28 -17 -63 -19 -77 -3 -14 -12 -52 -20 -85 -9
-33 -18 -71 -20 -85 -3 -14 -12 -63 -21 -110 -8 -47 -18 -101 -20 -120 -3 -19
-5 -35 -6 -35 -1 0 -3 -20 -5 -44 -3 -25 -6 -58 -9 -75 -13 -82 -20 -241 -20
-441 1 -253 6 -334 38 -577 19 -141 78 -404 125 -555 5 -18 7 -33 4 -33 -3 0
-1 -6 4 -13 5 -6 18 -39 28 -72 34 -114 127 -341 206 -500 77 -156 93 -187
153 -290 31 -52 157 -246 166 -255 3 -3 18 -23 33 -46 15 -22 36 -50 47 -62
11 -12 20 -24 20 -27 0 -4 6 -12 13 -19 6 -7 21 -25 32 -40 11 -15 29 -38 40
-50 11 -12 40 -47 65 -76 62 -75 321 -333 400 -400 36 -30 67 -58 70 -61 12
-15 263 -200 340 -251 213 -141 550 -316 748 -390 32 -11 68 -25 82 -31 14 -6
27 -11 30 -12 3 -1 70 -22 150 -48 80 -26 156 -49 170 -52 14 -2 61 -14 105
-25 86 -22 328 -67 410 -76 28 -3 64 -7 80 -9 127 -15 213 -19 445 -18 243 1
344 5 440 18 19 3 53 7 76 10 22 2 56 7 75 11 19 3 45 7 59 9 14 1 34 5 45 8
11 3 36 8 55 11 19 3 46 8 60 11 14 3 36 8 50 11 14 3 33 7 42 10 10 3 29 7
43 10 89 16 437 129 542 175 23 11 45 19 49 19 6 0 60 24 224 103 35 17 111
57 168 89 58 32 108 58 113 58 5 0 9 3 9 8 0 4 26 22 59 40 32 17 64 39 71 47
7 8 16 15 21 15 4 0 38 21 74 48 37 26 77 54 88 62 53 36 219 171 297 241 218
196 376 371 560 619 38 52 74 100 80 107 5 7 10 15 10 18 0 3 15 27 33 53 32
46 79 125 149 247 36 63 129 252 171 345 25 57 116 293 123 320 2 8 20 69 40
135 40 135 38 126 49 180 12 55 12 55 15 58 1 1 4 12 6 25 2 12 6 30 8 40 14
69 25 130 31 167 3 17 7 41 10 55 8 42 13 82 20 150 4 36 8 79 10 95 14 105
23 414 12 437 -4 9 -2 20 3 23 6 4 8 10 5 15 -3 5 -7 57 -10 116 -2 59 -7 124
-9 143 -6 48 -16 127 -21 176 -2 22 -7 51 -9 65 -3 14 -8 41 -10 60 -8 55 -45
227 -62 294 -9 34 -18 68 -19 76 -2 8 -4 17 -6 20 -1 3 -3 10 -3 15 -8 51
-126 381 -182 510 -10 22 -18 42 -19 45 -2 16 -140 288 -153 303 -8 9 -11 17
-6 17 5 0 4 4 -2 8 -5 4 -25 34 -43 67 -33 58 -150 243 -171 268 -23 28 -136
180 -145 195 -5 9 -17 24 -25 32 -8 8 -38 42 -65 75 -210 251 -486 500 -767
692 -62 42 -115 79 -118 83 -3 3 -16 11 -29 18 -13 8 -39 22 -57 32 -18 11
-50 30 -72 44 -122 77 -416 214 -622 291 -107 39 -355 116 -390 120 -8 1 -35
8 -60 14 -48 14 -71 19 -110 27 -14 2 -45 9 -70 14 -76 16 -261 42 -405 56
-68 7 -591 14 -597 8z m582 -408 c25 -3 65 -8 90 -11 120 -14 240 -33 290 -45
19 -5 46 -11 60 -13 14 -3 43 -10 65 -15 22 -6 51 -13 65 -16 40 -7 248 -72
337 -105 280 -103 559 -246 781 -400 41 -28 77 -51 82 -51 5 0 10 -3 12 -7 2
-5 39 -35 82 -68 115 -87 246 -203 366 -325 108 -109 222 -235 229 -253 2 -5
11 -17 20 -27 25 -26 49 -57 97 -123 25 -34 52 -73 62 -86 9 -13 24 -35 32
-50 8 -14 17 -28 21 -31 3 -3 16 -23 29 -44 23 -38 23 -39 4 -52 -10 -7 -25
-18 -31 -24 -7 -6 -13 -9 -13 -6 0 2 -41 -20 -90 -50 -50 -30 -93 -54 -96 -54
-3 0 -18 -8 -32 -19 -15 -10 -47 -29 -72 -43 -25 -14 -95 -54 -156 -90 -61
-36 -117 -68 -125 -71 -8 -4 -27 -16 -44 -26 -16 -11 -50 -30 -75 -42 -25 -13
-47 -25 -50 -29 -5 -6 -314 -185 -388 -225 -20 -11 -38 -23 -40 -27 -2 -5 -8
-8 -12 -8 -8 0 -299 -166 -422 -240 -25 -15 -56 -31 -67 -35 -12 -3 -21 -11
-21 -16 0 -5 -4 -9 -10 -9 -5 0 -47 -23 -94 -50 -47 -28 -89 -50 -95 -50 -5 0
-11 -4 -13 -8 -3 -8 -100 -64 -103 -60 -29 53 -103 159 -145 208 -64 76 -140
154 -140 143 0 -4 -7 2 -15 13 -22 33 -201 149 -297 193 -69 32 -158 64 -210
77 -5 1 -9 2 -10 4 -4 2 -39 10 -68 15 -14 2 -45 7 -70 12 -56 10 -308 10
-375 0 -137 -21 -291 -70 -403 -129 -71 -37 -180 -107 -212 -134 -99 -88 -128
-114 -158 -146 -19 -21 -42 -48 -50 -60 -9 -13 -19 -25 -22 -28 -12 -10 -111
-160 -105 -160 4 0 -2 -12 -12 -27 -42 -61 -110 -250 -127 -353 -3 -19 -8 -46
-11 -60 -3 -14 -7 -84 -9 -156 -5 -202 30 -388 102 -544 14 -30 26 -57 27 -60
21 -52 31 -70 37 -70 4 0 8 -7 8 -15 0 -8 5 -15 11 -15 7 0 0 -9 -14 -20 -14
-11 -28 -20 -31 -20 -4 0 -23 -11 -44 -24 -29 -19 -299 -175 -477 -276 -16
-10 -53 -31 -81 -47 -27 -17 -70 -41 -95 -55 -24 -14 -116 -67 -204 -118 -88
-51 -185 -106 -215 -123 -30 -16 -66 -38 -80 -47 -14 -9 -52 -32 -85 -50 -69
-39 -153 -87 -175 -100 -14 -9 -80 -47 -155 -90 -16 -9 -73 -41 -125 -70 -52
-30 -102 -60 -111 -67 -15 -12 -23 0 -83 121 -36 74 -66 137 -66 140 0 3 -10
29 -23 58 -83 189 -159 426 -203 638 -9 41 -18 84 -20 95 -9 41 -21 119 -29
190 -3 22 -7 54 -10 70 -25 157 -25 684 0 812 2 11 6 46 9 79 4 32 8 66 11 74
2 8 6 31 9 50 7 44 17 95 32 160 3 14 7 34 9 45 2 11 4 20 5 20 1 0 3 7 5 15
1 8 8 35 15 60 7 25 14 52 15 60 1 8 5 22 8 30 11 29 41 125 43 137 1 7 15 46
30 85 16 40 29 75 30 78 2 10 17 46 66 158 200 458 518 896 888 1222 40 36 83
74 96 85 12 11 34 29 49 39 14 11 36 28 48 39 34 30 127 95 250 174 62 40 117
77 124 83 7 5 17 10 23 10 5 0 10 4 10 8 0 5 6 9 13 9 6 0 30 11 52 25 22 14
58 33 80 43 22 11 43 23 46 28 3 5 10 9 15 9 5 1 41 16 80 34 74 34 191 84
209 88 6 2 24 8 40 15 17 7 75 28 130 46 85 29 118 39 200 61 6 2 19 5 30 7
11 3 67 16 125 30 58 14 125 28 150 32 25 4 52 9 60 10 57 10 143 20 260 30
41 4 76 8 78 10 5 5 516 -3 562 -9z m2820 -1836 c0 -4 17 -38 38 -76 34 -64
156 -327 167 -364 1 -3 6 -16 12 -30 17 -43 82 -234 86 -255 2 -11 7 -27 10
-35 3 -8 9 -28 13 -45 4 -16 8 -34 10 -40 7 -24 16 -62 19 -80 7 -35 14 -66
21 -87 3 -11 7 -30 9 -41 1 -12 5 -38 9 -57 10 -59 16 -93 21 -130 3 -19 7
-48 10 -65 7 -48 26 -278 26 -305 -1 -61 -1 -88 3 -105 2 -11 0 -30 -5 -42 -5
-13 -4 -25 2 -28 5 -4 7 -9 5 -13 -2 -4 -7 -65 -10 -137 -4 -71 -9 -143 -11
-160 -3 -16 -7 -55 -10 -85 -2 -30 -5 -55 -6 -55 0 0 -2 -11 -4 -25 -1 -14 -5
-38 -8 -55 -3 -16 -9 -52 -13 -80 -9 -55 -11 -64 -14 -67 -1 -2 -3 -10 -5 -19
-1 -10 -11 -50 -20 -90 -9 -41 -18 -81 -20 -89 -11 -53 -81 -274 -108 -340 -6
-14 -11 -28 -12 -32 -2 -5 -4 -10 -5 -13 -1 -3 -3 -8 -5 -12 -14 -51 -135
-315 -148 -324 -5 -3 -8 -9 -8 -13 4 -23 -218 -394 -241 -404 -5 -2 -8 -10 -8
-18 0 -8 -7 -17 -15 -20 -8 -4 -15 -10 -15 -15 0 -5 -18 -33 -41 -62 -22 -29
-51 -65 -64 -82 -24 -30 -35 -45 -103 -124 -129 -153 -389 -391 -572 -525 -58
-42 -109 -80 -115 -84 -47 -35 -243 -153 -325 -194 -25 -13 -46 -26 -48 -30
-2 -5 -7 -8 -12 -8 -4 0 -50 -20 -101 -44 -161 -76 -395 -167 -495 -191 -10
-3 -68 -19 -129 -35 -60 -17 -121 -32 -135 -35 -14 -3 -36 -7 -50 -10 -14 -3
-36 -7 -50 -10 -14 -3 -35 -7 -47 -9 -11 -3 -43 -8 -70 -12 -26 -3 -56 -8 -67
-10 -36 -6 -127 -16 -174 -18 -26 -1 -52 -5 -57 -8 -12 -6 -528 -2 -596 5 -26
3 -62 8 -80 11 -19 3 -56 8 -84 11 -47 6 -60 8 -125 20 -14 3 -50 9 -80 15
-72 13 -88 17 -127 29 -18 5 -33 8 -33 5 0 -3 -8 0 -17 5 -10 5 -31 11 -48 14
-16 3 -55 13 -85 23 -30 10 -59 19 -65 20 -59 14 -264 91 -307 114 -10 6 -22
10 -28 10 -6 0 -51 20 -100 45 -50 24 -90 41 -90 38 0 -3 -8 0 -17 8 -10 8
-31 21 -48 29 -58 28 -220 123 -226 132 -3 6 -10 10 -15 10 -8 1 -112 66 -124
78 -3 3 -25 19 -50 35 -53 36 -49 32 -175 133 -179 143 -406 365 -510 500 -5
7 -19 22 -29 32 -11 11 -16 20 -12 20 5 0 -3 9 -18 21 -14 11 -26 25 -26 30 0
5 -9 20 -21 32 -11 12 -34 43 -51 69 -17 27 -35 48 -40 48 -4 0 -8 4 -8 9 0 6
-27 52 -60 103 -33 51 -60 96 -60 101 0 5 7 15 15 23 8 9 15 13 15 9 0 -3 24
9 53 27 28 19 63 39 77 46 14 7 48 26 75 42 28 17 61 36 75 42 14 7 27 15 30
18 5 6 261 154 350 203 30 16 60 34 67 39 7 5 27 18 45 27 48 26 368 210 398
229 14 9 27 17 30 17 3 0 16 8 30 17 43 28 134 79 153 85 9 3 17 9 17 14 0 5
4 9 9 9 5 0 45 21 88 46 43 26 94 56 113 67 152 85 197 112 213 125 9 8 17 12
17 8 0 -4 12 1 28 12 15 11 81 50 147 88 66 38 129 74 140 81 11 7 27 15 35
19 8 4 32 18 53 31 39 25 81 48 152 86 22 12 42 24 45 27 10 10 153 90 161 90
5 0 9 5 9 10 0 6 4 10 9 10 5 0 80 41 168 92 87 50 171 98 186 107 16 9 36 21
45 26 9 6 58 33 107 62 350 200 962 554 972 563 7 5 14 10 17 10 9 0 291 165
294 172 2 4 8 8 13 8 6 0 48 23 95 50 47 28 89 50 94 50 6 0 10 4 10 8 0 4 15
15 33 23 17 8 93 50 167 94 117 68 217 125 362 209 20 12 62 36 95 55 32 19
78 45 103 59 25 14 62 36 82 49 21 12 42 23 48 23 5 0 10 4 10 9 0 5 8 11 18
14 9 4 44 22 77 42 33 19 69 39 80 45 11 5 27 14 35 20 43 29 344 200 361 205
10 4 19 11 19 16 0 5 6 9 13 9 6 0 23 9 36 19 23 18 51 18 51 1z"/>
<path d="M3850 7260 c-8 -5 -48 -24 -88 -42 -83 -36 -82 -31 -49 -148 13 -46
29 -104 52 -190 16 -57 36 -139 40 -160 3 -14 8 -32 12 -40 3 -8 8 -24 10 -35
2 -11 7 -31 12 -45 5 -14 15 -50 21 -80 7 -30 16 -64 20 -75 5 -11 33 -112 63
-225 30 -113 61 -218 68 -235 6 -16 13 -36 15 -43 6 -29 60 -110 100 -148 42
-40 97 -73 139 -83 72 -17 235 3 333 40 15 6 28 10 30 10 2 -1 164 98 171 105
2 2 -15 42 -39 88 l-44 84 -55 -38 c-109 -73 -266 -109 -331 -75 -27 14 -68
57 -88 93 -27 48 -52 127 -108 342 -3 14 -22 83 -41 154 -52 192 -59 224 -48
214 4 -4 22 -1 39 6 17 7 116 34 219 61 214 56 196 39 163 159 -19 69 -24 78
-37 71 -7 -5 -83 -27 -141 -41 -44 -10 -56 -14 -100 -27 -27 -8 -48 -13 -48
-10 0 3 -7 0 -15 -7 -8 -7 -15 -10 -15 -7 0 3 -21 -1 -47 -9 -62 -19 -83 -18
-83 4 0 9 -20 89 -44 177 -43 160 -52 176 -86 155z"/>
<path d="M2690 7142 c-123 -45 -244 -121 -313 -196 -124 -136 -133 -333 -24
-526 35 -63 92 -161 102 -178 6 -9 28 -48 50 -87 22 -38 48 -83 58 -100 10
-16 20 -38 23 -47 4 -10 10 -18 15 -18 5 0 9 -4 9 -9 0 -5 19 -42 43 -83 24
-40 55 -93 69 -118 14 -25 67 -117 118 -205 51 -88 102 -178 114 -200 11 -22
24 -42 27 -45 3 -3 18 -29 34 -57 15 -29 31 -53 35 -53 3 0 32 15 63 34 32 19
66 37 76 41 10 3 26 14 35 24 14 15 15 21 4 33 -7 8 -22 32 -34 53 -11 22 -72
128 -134 235 -62 107 -124 215 -138 240 -14 25 -36 61 -49 80 -12 19 -23 38
-23 43 0 4 -12 26 -27 50 -15 23 -36 58 -46 77 -11 19 -30 54 -43 77 l-23 42
77 43 c42 23 84 47 93 53 9 5 39 22 67 37 28 15 53 32 57 38 4 6 10 8 15 5 5
-3 14 1 22 8 7 7 28 22 46 32 17 11 32 23 32 27 0 5 -11 26 -25 48 -14 22 -25
44 -25 50 0 5 -4 10 -10 10 -5 0 -10 6 -10 14 0 7 -7 19 -15 26 -10 9 -15 9
-15 1 0 -6 -7 -11 -15 -11 -8 0 -15 -5 -15 -12 0 -6 -3 -9 -6 -6 -3 4 -50 -20
-105 -53 -54 -32 -104 -59 -109 -59 -6 0 -10 -4 -10 -10 0 -5 -4 -10 -9 -10
-6 0 -38 -16 -71 -36 -34 -20 -63 -34 -64 -32 -29 40 -46 68 -40 68 4 0 1 8
-7 18 -35 41 -62 125 -64 194 -3 70 17 117 67 165 35 33 150 100 183 106 11 2
28 7 37 11 9 4 21 5 25 3 5 -3 14 -2 21 2 20 12 -38 192 -62 190 -6 0 -45 -12
-86 -27z"/>
<path d="M6178 6935 c-4 -3 -136 -15 -166 -15 -25 0 -36 -21 -45 -85 -3 -22
-8 -56 -11 -75 -3 -19 -8 -53 -11 -75 -3 -22 -7 -51 -10 -65 -8 -39 -23 -131
-30 -174 -3 -21 -7 -48 -10 -60 -3 -12 -7 -32 -9 -46 -3 -14 -14 -70 -26 -125
-11 -55 -23 -109 -25 -120 -2 -11 -7 -31 -10 -45 -3 -14 -8 -32 -10 -40 -2 -8
-4 -15 -6 -15 -1 0 -3 -9 -5 -20 -2 -11 -7 -35 -11 -54 l-8 -34 -18 26 c-9 14
-17 29 -17 33 0 3 -9 18 -19 33 -11 15 -21 34 -23 42 -2 8 -6 16 -9 19 -6 5
-143 280 -145 290 0 3 -14 34 -30 70 -17 36 -50 112 -73 170 -24 58 -47 113
-52 122 -5 10 -9 26 -9 36 0 10 -3 22 -7 26 -5 4 -15 28 -24 54 -16 47 -16 47
-60 46 -24 -1 -69 -4 -99 -7 -30 -3 -65 -6 -77 -6 l-23 -1 22 -57 c11 -32 25
-69 31 -83 6 -14 11 -27 12 -30 37 -109 280 -621 316 -666 5 -6 20 -31 33 -55
13 -24 33 -60 44 -79 12 -19 29 -48 38 -65 9 -16 37 -61 62 -100 46 -71 53
-104 29 -133 -6 -8 -11 -18 -11 -21 2 -8 -8 -34 -18 -46 -5 -5 -22 -29 -39
-52 -45 -63 -138 -105 -233 -106 -39 -1 -89 2 -111 6 -35 7 -41 6 -41 -10 -1
-28 -15 -126 -20 -145 -3 -10 2 -19 15 -23 36 -11 192 -21 198 -12 3 4 11 6
19 3 20 -8 162 41 208 71 21 14 57 44 78 67 42 44 108 148 108 171 0 7 4 15 9
17 7 3 56 128 66 168 2 8 10 33 18 56 14 39 78 258 81 279 1 5 5 16 9 23 5 6
6 12 3 12 -3 0 -1 11 4 26 6 14 13 39 16 57 7 40 8 42 23 97 7 25 15 56 17 70
3 14 18 88 34 165 16 77 32 158 36 180 4 22 8 49 10 60 13 72 24 136 29 175 3
25 8 52 11 61 3 13 -17 23 -28 14z"/>
<path d="M1308 5835 c-121 -41 -137 -187 -28 -259 35 -23 51 -27 86 -23 71 8
134 75 134 142 0 65 -62 138 -126 148 -17 3 -46 -1 -66 -8z"/>
<path d="M1614 5434 l-77 -76 442 -442 441 -441 75 75 c41 41 75 78 75 82 0 9
-866 878 -874 878 -3 0 -40 -34 -82 -76z"/>
<path d="M843 4873 c-42 -43 -98 -114 -117 -148 -9 -16 -27 -48 -39 -70 -46
-82 -70 -173 -68 -255 3 -118 76 -240 194 -325 34 -24 67 -48 72 -53 6 -4 17
-11 27 -14 9 -4 45 -24 80 -45 35 -21 81 -47 103 -58 22 -11 42 -23 45 -26 3
-3 39 -25 80 -49 41 -23 91 -52 110 -63 19 -11 46 -27 60 -34 14 -8 48 -28 75
-44 28 -16 61 -35 75 -42 14 -6 31 -17 38 -24 7 -7 20 -13 28 -13 8 0 14 -4
14 -10 0 -5 6 -10 14 -10 8 0 21 -6 28 -13 7 -6 31 -21 53 -32 22 -11 42 -22
45 -25 3 -3 26 -17 53 -30 26 -14 47 -28 47 -32 0 -5 9 -8 20 -8 11 0 20 -3
20 -8 0 -4 17 -16 38 -27 20 -11 53 -29 72 -40 65 -40 63 -40 115 51 26 46 51
87 57 90 10 7 -29 36 -102 75 -25 13 -47 26 -50 30 -3 3 -32 20 -65 39 -33 18
-76 42 -95 53 -19 11 -47 28 -62 39 -16 11 -28 16 -28 12 0 -3 -7 -1 -15 6 -8
7 -115 70 -237 140 -123 71 -231 134 -241 142 -17 12 -14 20 47 126 36 62 66
117 66 123 0 5 5 9 10 9 6 0 10 4 10 9 0 8 22 47 72 131 l16 28 -51 27 c-29
16 -65 37 -81 48 -23 16 -30 17 -37 6 -5 -8 -59 -101 -120 -206 -61 -106 -113
-193 -115 -193 -5 0 -88 45 -119 65 -50 33 -96 78 -123 120 -31 48 -39 142
-16 187 8 15 12 28 9 28 -3 0 6 18 20 40 14 22 25 42 25 46 0 3 24 30 53 61
28 30 54 59 55 64 2 6 -7 19 -20 30 -12 11 -36 32 -53 47 -63 57 -61 56 -92
25z"/>
<path d="M7075 5608 c-77 -44 -165 -94 -195 -111 -30 -16 -62 -36 -71 -43 -8
-8 -18 -14 -22 -14 -3 0 -89 -48 -189 -106 -101 -58 -230 -133 -288 -167 -58
-33 -126 -73 -151 -89 -25 -15 -49 -28 -52 -28 -4 0 -31 -16 -61 -35 -30 -19
-57 -35 -59 -35 -3 0 -34 -17 -68 -38 -35 -21 -89 -52 -119 -69 -120 -67 -456
-262 -467 -272 -7 -6 -14 -11 -16 -11 -3 0 -49 -25 -103 -57 -55 -31 -109 -61
-121 -67 -13 -6 -23 -15 -23 -19 0 -5 -4 -6 -9 -3 -5 3 -14 -1 -21 -9 -7 -8
-19 -15 -26 -15 -8 0 -14 -4 -14 -10 0 -5 -6 -10 -14 -10 -8 0 -22 -7 -30 -16
-9 -8 -16 -13 -16 -9 0 3 -12 -2 -27 -13 -16 -10 -48 -30 -73 -44 -25 -14 -72
-41 -105 -60 -33 -19 -71 -41 -85 -49 -14 -8 -27 -16 -30 -19 -4 -4 -29 -18
-115 -64 -11 -6 -22 -13 -25 -16 -3 -3 -21 -13 -40 -24 -97 -52 -265 -151
-268 -158 -2 -4 -8 -8 -14 -8 -6 0 -51 -24 -102 -54 -83 -49 -235 -137 -706
-408 -91 -53 -182 -105 -202 -116 -20 -12 -55 -32 -77 -46 -22 -15 -45 -26
-49 -26 -5 0 -20 -8 -33 -19 -13 -10 -55 -35 -94 -56 -38 -21 -81 -46 -95 -55
-14 -9 -61 -36 -105 -60 -44 -24 -81 -47 -83 -52 -2 -4 -8 -8 -13 -8 -4 0 -46
-22 -93 -50 -47 -27 -89 -50 -95 -50 -6 0 -11 -4 -11 -10 0 -5 -4 -10 -8 -10
-5 0 -62 -31 -128 -70 -65 -38 -130 -75 -144 -82 -14 -7 -36 -19 -50 -29 -24
-16 -68 -41 -180 -102 -30 -17 -56 -34 -58 -39 -2 -4 -7 -8 -12 -8 -7 0 -108
-57 -290 -163 -19 -11 -46 -27 -60 -34 -14 -8 -42 -24 -62 -36 -21 -12 -72
-42 -114 -66 -43 -24 -90 -51 -106 -60 l-27 -17 49 -70 c27 -38 59 -84 72
-102 13 -18 28 -39 33 -45 6 -7 41 -50 80 -97 106 -130 279 -310 384 -399 25
-22 60 -51 76 -66 51 -44 250 -193 291 -216 21 -13 41 -26 44 -30 10 -12 137
-89 149 -89 6 0 11 -3 11 -7 0 -5 10 -13 23 -19 12 -6 76 -38 142 -71 66 -34
136 -67 155 -76 19 -8 61 -27 92 -41 31 -14 61 -26 67 -26 6 0 25 -6 43 -14
31 -14 66 -27 78 -31 3 0 50 -15 105 -32 116 -37 237 -69 280 -76 17 -3 48 -9
70 -15 22 -5 47 -10 55 -11 8 0 26 -2 40 -5 97 -17 163 -27 212 -32 300 -31
683 -21 933 22 17 3 41 7 55 9 68 10 289 60 330 74 14 5 52 17 85 26 68 19
213 70 264 92 18 8 39 16 45 17 6 2 38 15 71 30 73 34 97 43 109 44 5 0 12 4
15 9 3 5 40 26 81 47 136 68 282 155 380 226 26 19 58 42 70 50 24 16 168 128
187 145 6 5 37 33 69 60 111 95 293 282 379 390 22 27 47 57 55 66 25 29 34
41 103 137 37 50 67 94 67 97 0 3 15 26 33 52 19 27 49 75 68 108 19 33 39 68
44 77 6 10 23 43 40 75 16 32 34 61 38 64 5 3 8 9 7 13 -1 4 9 30 23 59 58
120 118 267 110 267 -3 0 -1 6 4 13 8 10 33 74 38 97 1 3 15 50 32 105 30 96
55 194 53 205 -1 3 4 19 10 35 7 17 14 46 16 65 3 19 7 42 9 50 5 16 8 37 25
150 31 215 43 568 26 770 -6 73 -17 177 -21 200 -1 8 -6 40 -11 70 -11 69 -11
74 -14 80 -1 3 -3 19 -6 35 -2 17 -6 37 -7 45 -2 8 -7 33 -11 55 -4 22 -12 51
-17 65 -5 14 -11 36 -13 50 -3 14 -5 25 -6 25 -1 0 -3 11 -6 25 -2 14 -18 68
-35 120 -17 52 -32 100 -33 105 -6 23 -78 206 -109 275 -24 56 -79 170 -81
170 0 0 -64 -37 -141 -82z"/>
</g>
</svg>
