<svg xmlns="http://www.w3.org/2000/svg" xmlns:xlink="http://www.w3.org/1999/xlink">

  <!--Logo-->
<symbol id="icon-fullLogo" viewBox="0 0 407 400">
<circle cx="206.098" cy="200" r="190" stroke="#4FD0E6" stroke-width="20" fill="#F9F7F7"/>
<line x1="36.5984" y1="296.402" x2="372.556" y2="102.437" stroke="#4FD0E6" stroke-width="6"/>
<path fill-rule="evenodd" clip-rule="evenodd" d="M58.0984 293.782C89.3208 341.685 143.369 373.352 204.813 373.352C301.463 373.352 379.813 295.002 379.813 198.352C379.813 169.786 372.969 142.818 360.83 119L58.0984 293.782Z" fill="#D9DB72"/>
<path fill-rule="evenodd" clip-rule="evenodd" d="M256.243 165.999L143.681 230.987C137.603 221.098 134.098 209.458 134.098 197C134.098 161.101 163.2 132 199.098 132C223.771 132 245.233 145.747 256.243 165.999Z" fill="#4FD0E6"/>
<path d="M35.2403 168.981C36.8803 166.14 38.4882 163.835 40.0639 162.066C41.6796 160.228 42.9006 158.993 43.727 158.362L51.0209 164.928C50.1252 165.52 49.0641 166.477 47.8377 167.802C46.542 169.086 45.2542 170.836 43.9742 173.053C41.3742 177.557 40.8013 181.429 42.2554 184.67C43.6403 187.872 46.4112 190.672 50.5681 193.072L55.2446 195.772L67.2446 174.988L75.3506 179.668L63.3506 200.452L109.285 226.972L103.705 236.637L44.7803 202.617C37.8521 198.617 33.4973 193.84 31.7161 188.285C29.8656 182.69 31.0403 176.256 35.2403 168.981Z" fill="#1B161D"/>
<path d="M128.87 171.875L120.979 179.766L76.8556 135.643L84.7469 127.751L128.87 171.875ZM72.7827 123.763C71.3685 125.177 69.6997 125.941 67.7764 126.054C65.853 126.054 64.0994 125.262 62.5155 123.678C60.9316 122.094 60.1679 120.369 60.2245 118.502C60.281 116.522 61.0164 114.825 62.4306 113.411C63.8449 111.997 65.5136 111.29 67.437 111.29C69.3603 111.177 71.1139 111.912 72.6978 113.496C74.2818 115.08 75.0454 116.862 74.9889 118.842C74.9323 120.708 74.1969 122.349 72.7827 123.763Z" fill="#1B161D"/>
<path d="M126.907 49.9249C129.748 48.2849 132.293 47.0927 134.542 46.3484C136.86 45.5641 138.535 45.1052 139.566 44.9716L142.6 54.3054C141.528 54.3697 140.131 54.6687 138.406 55.2023C136.642 55.6666 134.652 56.5387 132.435 57.8187C127.931 60.4187 125.499 63.4858 125.138 67.0199C124.736 70.4848 125.736 74.2957 128.136 78.4526L130.836 83.1292L151.62 71.1292L156.3 79.2352L135.516 91.2352L162.036 137.169L152.371 142.749L118.351 83.8248C114.351 76.8966 112.968 70.5819 114.203 64.8806C115.398 59.1101 119.632 54.1249 126.907 49.9249Z" fill="#1B161D"/>
<path d="M199.448 58.3188L222.283 52.2003L224.705 61.2414L201.871 67.3598L209.325 95.1785C210.132 98.1922 211.037 100.641 212.039 102.526C213.02 104.334 214.13 105.693 215.368 106.604C216.585 107.437 217.951 107.899 219.466 107.99C220.981 108.081 222.666 107.878 224.521 107.381C227.766 106.512 230.262 105.47 232.007 104.257C233.809 102.946 235.055 102.032 235.745 101.516L240.223 109.882C239.286 110.713 237.569 111.877 235.072 113.375C232.595 114.949 229.618 116.203 226.14 117.134C222.045 118.232 218.51 118.641 215.536 118.361C212.619 117.983 210.07 116.968 207.888 115.317C205.706 113.665 203.864 111.426 202.361 108.598C200.914 105.673 199.653 102.201 198.576 98.1828L184.165 44.4001L194.448 39.6571L199.448 58.3188Z" fill="#1B161D"/>
<path d="M261.902 135.313C262.813 135.634 263.96 135.895 265.343 136.096C266.813 136.369 268.225 136.446 269.579 136.327C273.963 135.944 277.303 134.648 279.599 132.439C281.902 130.31 283.858 126.967 285.467 122.41C279.609 113.285 274.022 103.575 268.704 93.2797C263.459 82.8973 258.921 72.3326 255.09 61.5856L267.045 60.5398C268.235 64.0494 269.609 67.824 271.167 71.8635C272.805 75.8962 274.573 80.0379 276.47 84.2886C278.368 88.5394 280.385 92.7797 282.522 97.0096C284.659 101.239 286.861 105.303 289.13 109.2C291.426 100.567 293.331 92.0487 294.844 83.6448C296.357 75.2409 297.73 66.6084 298.963 57.7473L310.439 56.7433C308.595 68.7095 306.393 80.2653 303.835 91.4107C301.27 102.476 298.366 112.889 295.125 122.649C293.844 126.375 292.439 129.589 290.909 132.293C289.466 135.069 287.781 137.385 285.855 139.24C283.93 141.095 281.687 142.536 279.126 143.563C276.646 144.583 273.772 145.236 270.504 145.522C269.628 145.598 268.704 145.599 267.734 145.523C266.771 145.527 265.8 145.451 264.823 145.296C263.932 145.213 263.078 145.087 262.26 144.918C261.522 144.741 260.987 144.588 260.654 144.456L261.902 135.313Z" fill="#1B161D"/>
<path d="M166.477 285.151L186.95 273.331L191.63 281.437L171.157 293.257L185.557 318.199C187.117 320.901 188.625 323.032 190.08 324.594C191.496 326.086 192.92 327.112 194.351 327.671C195.742 328.161 197.182 328.254 198.669 327.949C200.156 327.645 201.731 327.013 203.393 326.053C206.303 324.373 208.444 322.721 209.816 321.097C211.218 319.365 212.185 318.16 212.717 317.483L219.208 324.405C218.518 325.45 217.161 327.018 215.136 329.111C213.151 331.273 210.6 333.254 207.482 335.054C203.81 337.174 200.502 338.484 197.557 338.983C194.641 339.373 191.916 339.053 189.381 338.023C186.846 336.992 184.487 335.306 182.303 332.964C180.149 330.512 178.032 327.485 175.952 323.883L148.112 275.662L156.817 268.42L166.477 285.151ZM274.616 294.771C269.796 290.902 264.437 286.421 258.54 281.327C252.672 276.124 246.838 270.578 241.037 264.69C243.235 272.658 245.121 280.484 246.693 288.167C248.225 295.781 249.461 302.642 250.401 308.751L241.984 313.611C234.677 308.315 226.859 301.974 218.531 294.589C210.202 287.203 201.627 278.991 192.805 269.951L203.197 263.951C205.77 266.807 208.642 269.86 211.811 273.111C214.981 276.361 218.186 279.592 221.425 282.802C224.734 285.973 227.997 288.985 231.215 291.838C234.432 294.692 237.321 297.135 239.88 299.167C239.178 295.231 238.341 291.142 237.37 286.899C236.427 282.547 235.416 278.235 234.335 273.963C233.214 269.622 232.084 265.425 230.945 261.371C229.835 257.209 228.726 253.368 227.619 249.851L235.621 245.231C238.045 247.988 240.747 250.909 243.728 253.991C246.668 257.005 249.738 260.082 252.937 263.223C256.097 266.295 259.291 269.347 262.519 272.379C265.777 275.302 268.935 278.051 271.992 280.627C271.512 277.395 270.806 273.692 269.874 269.518C269.012 265.305 268.035 260.973 266.944 256.522C265.852 252.072 264.691 247.661 263.461 243.291C262.231 238.92 261.023 234.907 259.835 231.251L269.812 225.491C273.23 237.651 276.055 249.183 278.286 260.089C280.518 270.994 282.1 280.935 283.033 289.911L274.616 294.771ZM342.115 219.773C344.595 224.069 346.211 228.308 346.964 232.493C347.717 236.677 347.671 240.676 346.824 244.49C346.047 248.264 344.5 251.744 342.182 254.93C339.825 258.046 336.81 260.664 333.138 262.784C329.466 264.904 325.691 266.206 321.813 266.69C317.896 267.104 314.074 266.724 310.347 265.55C306.69 264.336 303.238 262.357 299.991 259.613C296.744 256.868 293.881 253.349 291.401 249.053C288.961 244.827 287.364 240.622 286.611 236.438C285.818 232.184 285.81 228.171 286.587 224.396C287.434 220.582 289.036 217.117 291.393 214.001C293.711 210.815 296.706 208.162 300.378 206.042C304.05 203.922 307.845 202.655 311.762 202.241C315.64 201.757 319.407 202.122 323.064 203.336C326.791 204.511 330.297 206.504 333.584 209.318C336.831 212.062 339.675 215.547 342.115 219.773ZM332.034 225.593C328.514 219.496 324.349 215.481 319.538 213.548C314.756 211.505 310.009 211.844 305.298 214.564C300.587 217.284 297.885 221.245 297.194 226.448C296.532 231.541 297.961 237.136 301.481 243.233C305.001 249.33 309.152 253.4 313.934 255.442C318.745 257.376 323.507 256.982 328.218 254.262C332.929 251.542 335.616 247.636 336.278 242.542C336.969 237.34 335.554 231.69 332.034 225.593Z" fill="#1B161D"/>
<path d="M170.836 182.3C175.116 180.05 178.707 179.197 181.606 179.74C184.534 180.267 186.822 181.957 188.47 184.812C189.206 186.086 189.664 187.392 189.845 188.729C190.053 190.05 189.938 191.354 189.499 192.642C189.088 193.914 188.345 195.156 187.271 196.367C186.197 197.579 184.745 198.712 182.916 199.768C182.196 200.184 181.429 200.553 180.617 200.874C179.805 201.195 179.032 201.457 178.299 201.658C177.565 201.86 176.901 202.022 176.306 202.143C175.711 202.265 175.271 202.335 174.985 202.352L173.79 198.553C174.389 198.502 175.319 198.353 176.58 198.106C177.869 197.842 179.289 197.262 180.841 196.366C182.088 195.646 183.047 194.907 183.719 194.15C184.418 193.377 184.895 192.603 185.149 191.828C185.404 191.053 185.466 190.296 185.336 189.559C185.217 188.777 184.958 188.04 184.558 187.347C183.95 186.294 183.234 185.47 182.409 184.874C181.569 184.251 180.532 183.926 179.297 183.9C178.063 183.874 176.603 184.162 174.919 184.765C173.219 185.34 171.205 186.299 168.877 187.643C168.259 186.19 167.648 184.843 167.043 183.603C166.466 182.347 165.891 181.127 165.318 179.943C164.745 178.759 164.166 177.597 163.582 176.456C162.981 175.288 162.349 174.064 161.684 172.785L175.568 164.769L177.464 168.053L166.947 174.125C167.159 174.557 167.446 175.149 167.806 175.902C168.151 176.626 168.52 177.393 168.912 178.201C169.289 178.981 169.657 179.747 170.018 180.5C170.379 181.252 170.651 181.852 170.836 182.3ZM203.28 158.58C203.856 159.578 204.208 160.668 204.337 161.85C204.477 162.988 204.478 164.207 204.341 165.505C204.188 166.776 203.952 168.095 203.632 169.462C203.297 170.801 202.953 172.126 202.602 173.438C202.403 174.181 202.169 175.055 201.899 176.06C201.658 177.05 201.46 178.051 201.305 179.064C201.151 180.077 201.064 181.014 201.044 181.875C201.052 182.72 201.192 183.379 201.464 183.85L214.724 176.194L216.62 179.478L199.161 189.558C199.037 189.408 198.928 189.249 198.832 189.083C198.736 188.917 198.648 188.764 198.568 188.626C197.816 187.323 197.327 185.998 197.103 184.649C196.89 183.257 196.843 181.862 196.959 180.464C197.076 179.067 197.308 177.676 197.655 176.294C198.002 174.911 198.352 173.564 198.703 172.252C199.012 171.187 199.287 170.16 199.529 169.171C199.782 168.137 199.96 167.166 200.064 166.257C200.178 165.304 200.174 164.401 200.051 163.548C199.956 162.679 199.685 161.857 199.237 161.081C198.757 160.249 198.21 159.623 197.597 159.201C197.012 158.763 196.385 158.478 195.718 158.346C195.05 158.214 194.364 158.241 193.658 158.426C192.964 158.568 192.285 158.831 191.62 159.215C190.816 159.679 190.145 160.214 189.608 160.82C189.071 161.426 188.627 162.033 188.277 162.642C187.91 163.223 187.643 163.784 187.475 164.324C187.29 164.837 187.149 165.233 187.051 165.511L183.555 163.871C183.645 163.45 183.827 162.902 184.101 162.226C184.36 161.522 184.732 160.79 185.217 160.03C185.702 159.27 186.302 158.517 187.017 157.771C187.732 157.026 188.588 156.365 189.586 155.789C192.607 154.045 195.273 153.448 197.586 153.997C199.91 154.503 201.808 156.031 203.28 158.58Z" fill="#F9F7F7"/>
</symbol>
<!--Premise BG-->
<symbol id="icon-premiseBg" viewBox="0 0 1440 762">
<path d="M0 0C0 0 437.832 65.3451 720 65.3451C1002.17 65.3451 1440 0 1440 0V762C1440 762 1216.5 705.296 720 707.456C223.5 709.616 0 762 0 762V0Z" fill="#C998BE"/>
</symbol>
</svg>
