<svg xmlns="http://www.w3.org/2000/svg" xmlns:xlink="http://www.w3.org/1999/xlink">

  <!--Logo-->
<symbol id="icon-fullLogo" viewBox="0 0 407 400">
<circle cx="206.098" cy="200" r="190" stroke="#4FD0E6" stroke-width="20" fill="#F9F7F7"/>
<line x1="36.5984" y1="296.402" x2="372.556" y2="102.437" stroke="#4FD0E6" stroke-width="6"/>
<path fill-rule="evenodd" clip-rule="evenodd" d="M58.0984 293.782C89.3208 341.685 143.369 373.352 204.813 373.352C301.463 373.352 379.813 295.002 379.813 198.352C379.813 169.786 372.969 142.818 360.83 119L58.0984 293.782Z" fill="#D9DB72"/>
<path fill-rule="evenodd" clip-rule="evenodd" d="M256.243 165.999L143.681 230.987C137.603 221.098 134.098 209.458 134.098 197C134.098 161.101 163.2 132 199.098 132C223.771 132 245.233 145.747 256.243 165.999Z" fill="#4FD0E6"/>
<path d="M35.2403 168.981C36.8803 166.14 38.4882 163.835 40.0639 162.066C41.6796 160.228 42.9006 158.993 43.727 158.362L51.0209 164.928C50.1252 165.52 49.0641 166.477 47.8377 167.802C46.542 169.086 45.2542 170.836 43.9742 173.053C41.3742 177.557 40.8013 181.429 42.2554 184.67C43.6403 187.872 46.4112 190.672 50.5681 193.072L55.2446 195.772L67.2446 174.988L75.3506 179.668L63.3506 200.452L109.285 226.972L103.705 236.637L44.7803 202.617C37.8521 198.617 33.4973 193.84 31.7161 188.285C29.8656 182.69 31.0403 176.256 35.2403 168.981Z" fill="#1B161D"/>
<path d="M128.87 171.875L120.979 179.766L76.8556 135.643L84.7469 127.751L128.87 171.875ZM72.7827 123.763C71.3685 125.177 69.6997 125.941 67.7764 126.054C65.853 126.054 64.0994 125.262 62.5155 123.678C60.9316 122.094 60.1679 120.369 60.2245 118.502C60.281 116.522 61.0164 114.825 62.4306 113.411C63.8449 111.997 65.5136 111.29 67.437 111.29C69.3603 111.177 71.1139 111.912 72.6978 113.496C74.2818 115.08 75.0454 116.862 74.9889 118.842C74.9323 120.708 74.1969 122.349 72.7827 123.763Z" fill="#1B161D"/>
<path d="M126.907 49.9249C129.748 48.2849 132.293 47.0927 134.542 46.3484C136.86 45.5641 138.535 45.1052 139.566 44.9716L142.6 54.3054C141.528 54.3697 140.131 54.6687 138.406 55.2023C136.642 55.6666 134.652 56.5387 132.435 57.8187C127.931 60.4187 125.499 63.4858 125.138 67.0199C124.736 70.4848 125.736 74.2957 128.136 78.4526L130.836 83.1292L151.62 71.1292L156.3 79.2352L135.516 91.2352L162.036 137.169L152.371 142.749L118.351 83.8248C114.351 76.8966 112.968 70.5819 114.203 64.8806C115.398 59.1101 119.632 54.1249 126.907 49.9249Z" fill="#1B161D"/>
<path d="M199.448 58.3188L222.283 52.2003L224.705 61.2414L201.871 67.3598L209.325 95.1785C210.132 98.1922 211.037 100.641 212.039 102.526C213.02 104.334 214.13 105.693 215.368 106.604C216.585 107.437 217.951 107.899 219.466 107.99C220.981 108.081 222.666 107.878 224.521 107.381C227.766 106.512 230.262 105.47 232.007 104.257C233.809 102.946 235.055 102.032 235.745 101.516L240.223 109.882C239.286 110.713 237.569 111.877 235.072 113.375C232.595 114.949 229.618 116.203 226.14 117.134C222.045 118.232 218.51 118.641 215.536 118.361C212.619 117.983 210.07 116.968 207.888 115.317C205.706 113.665 203.864 111.426 202.361 108.598C200.914 105.673 199.653 102.201 198.576 98.1828L184.165 44.4001L194.448 39.6571L199.448 58.3188Z" fill="#1B161D"/>
<path d="M261.902 135.313C262.813 135.634 263.96 135.895 265.343 136.096C266.813 136.369 268.225 136.446 269.579 136.327C273.963 135.944 277.303 134.648 279.599 132.439C281.902 130.31 283.858 126.967 285.467 122.41C279.609 113.285 274.022 103.575 268.704 93.2797C263.459 82.8973 258.921 72.3326 255.09 61.5856L267.045 60.5398C268.235 64.0494 269.609 67.824 271.167 71.8635C272.805 75.8962 274.573 80.0379 276.47 84.2886C278.368 88.5394 280.385 92.7797 282.522 97.0096C284.659 101.239 286.861 105.303 289.13 109.2C291.426 100.567 293.331 92.0487 294.844 83.6448C296.357 75.2409 297.73 66.6084 298.963 57.7473L310.439 56.7433C308.595 68.7095 306.393 80.2653 303.835 91.4107C301.27 102.476 298.366 112.889 295.125 122.649C293.844 126.375 292.439 129.589 290.909 132.293C289.466 135.069 287.781 137.385 285.855 139.24C283.93 141.095 281.687 142.536 279.126 143.563C276.646 144.583 273.772 145.236 270.504 145.522C269.628 145.598 268.704 145.599 267.734 145.523C266.771 145.527 265.8 145.451 264.823 145.296C263.932 145.213 263.078 145.087 262.26 144.918C261.522 144.741 260.987 144.588 260.654 144.456L261.902 135.313Z" fill="#1B161D"/>
<path d="M166.477 285.151L186.95 273.331L191.63 281.437L171.157 293.257L185.557 318.199C187.117 320.901 188.625 323.032 190.08 324.594C191.496 326.086 192.92 327.112 194.351 327.671C195.742 328.161 197.182 328.254 198.669 327.949C200.156 327.645 201.731 327.013 203.393 326.053C206.303 324.373 208.444 322.721 209.816 321.097C211.218 319.365 212.185 318.16 212.717 317.483L219.208 324.405C218.518 325.45 217.161 327.018 215.136 329.111C213.151 331.273 210.6 333.254 207.482 335.054C203.81 337.174 200.502 338.484 197.557 338.983C194.641 339.373 191.916 339.053 189.381 338.023C186.846 336.992 184.487 335.306 182.303 332.964C180.149 330.512 178.032 327.485 175.952 323.883L148.112 275.662L156.817 268.42L166.477 285.151ZM274.616 294.771C269.796 290.902 264.437 286.421 258.54 281.327C252.672 276.124 246.838 270.578 241.037 264.69C243.235 272.658 245.121 280.484 246.693 288.167C248.225 295.781 249.461 302.642 250.401 308.751L241.984 313.611C234.677 308.315 226.859 301.974 218.531 294.589C210.202 287.203 201.627 278.991 192.805 269.951L203.197 263.951C205.77 266.807 208.642 269.86 211.811 273.111C214.981 276.361 218.186 279.592 221.425 282.802C224.734 285.973 227.997 288.985 231.215 291.838C234.432 294.692 237.321 297.135 239.88 299.167C239.178 295.231 238.341 291.142 237.37 286.899C236.427 282.547 235.416 278.235 234.335 273.963C233.214 269.622 232.084 265.425 230.945 261.371C229.835 257.209 228.726 253.368 227.619 249.851L235.621 245.231C238.045 247.988 240.747 250.909 243.728 253.991C246.668 257.005 249.738 260.082 252.937 263.223C256.097 266.295 259.291 269.347 262.519 272.379C265.777 275.302 268.935 278.051 271.992 280.627C271.512 277.395 270.806 273.692 269.874 269.518C269.012 265.305 268.035 260.973 266.944 256.522C265.852 252.072 264.691 247.661 263.461 243.291C262.231 238.92 261.023 234.907 259.835 231.251L269.812 225.491C273.23 237.651 276.055 249.183 278.286 260.089C280.518 270.994 282.1 280.935 283.033 289.911L274.616 294.771ZM342.115 219.773C344.595 224.069 346.211 228.308 346.964 232.493C347.717 236.677 347.671 240.676 346.824 244.49C346.047 248.264 344.5 251.744 342.182 254.93C339.825 258.046 336.81 260.664 333.138 262.784C329.466 264.904 325.691 266.206 321.813 266.69C317.896 267.104 314.074 266.724 310.347 265.55C306.69 264.336 303.238 262.357 299.991 259.613C296.744 256.868 293.881 253.349 291.401 249.053C288.961 244.827 287.364 240.622 286.611 236.438C285.818 232.184 285.81 228.171 286.587 224.396C287.434 220.582 289.036 217.117 291.393 214.001C293.711 210.815 296.706 208.162 300.378 206.042C304.05 203.922 307.845 202.655 311.762 202.241C315.64 201.757 319.407 202.122 323.064 203.336C326.791 204.511 330.297 206.504 333.584 209.318C336.831 212.062 339.675 215.547 342.115 219.773ZM332.034 225.593C328.514 219.496 324.349 215.481 319.538 213.548C314.756 211.505 310.009 211.844 305.298 214.564C300.587 217.284 297.885 221.245 297.194 226.448C296.532 231.541 297.961 237.136 301.481 243.233C305.001 249.33 309.152 253.4 313.934 255.442C318.745 257.376 323.507 256.982 328.218 254.262C332.929 251.542 335.616 247.636 336.278 242.542C336.969 237.34 335.554 231.69 332.034 225.593Z" fill="#1B161D"/>
<path d="M170.836 182.3C175.116 180.05 178.707 179.197 181.606 179.74C184.534 180.267 186.822 181.957 188.47 184.812C189.206 186.086 189.664 187.392 189.845 188.729C190.053 190.05 189.938 191.354 189.499 192.642C189.088 193.914 188.345 195.156 187.271 196.367C186.197 197.579 184.745 198.712 182.916 199.768C182.196 200.184 181.429 200.553 180.617 200.874C179.805 201.195 179.032 201.457 178.299 201.658C177.565 201.86 176.901 202.022 176.306 202.143C175.711 202.265 175.271 202.335 174.985 202.352L173.79 198.553C174.389 198.502 175.319 198.353 176.58 198.106C177.869 197.842 179.289 197.262 180.841 196.366C182.088 195.646 183.047 194.907 183.719 194.15C184.418 193.377 184.895 192.603 185.149 191.828C185.404 191.053 185.466 190.296 185.336 189.559C185.217 188.777 184.958 188.04 184.558 187.347C183.95 186.294 183.234 185.47 182.409 184.874C181.569 184.251 180.532 183.926 179.297 183.9C178.063 183.874 176.603 184.162 174.919 184.765C173.219 185.34 171.205 186.299 168.877 187.643C168.259 186.19 167.648 184.843 167.043 183.603C166.466 182.347 165.891 181.127 165.318 179.943C164.745 178.759 164.166 177.597 163.582 176.456C162.981 175.288 162.349 174.064 161.684 172.785L175.568 164.769L177.464 168.053L166.947 174.125C167.159 174.557 167.446 175.149 167.806 175.902C168.151 176.626 168.52 177.393 168.912 178.201C169.289 178.981 169.657 179.747 170.018 180.5C170.379 181.252 170.651 181.852 170.836 182.3ZM203.28 158.58C203.856 159.578 204.208 160.668 204.337 161.85C204.477 162.988 204.478 164.207 204.341 165.505C204.188 166.776 203.952 168.095 203.632 169.462C203.297 170.801 202.953 172.126 202.602 173.438C202.403 174.181 202.169 175.055 201.899 176.06C201.658 177.05 201.46 178.051 201.305 179.064C201.151 180.077 201.064 181.014 201.044 181.875C201.052 182.72 201.192 183.379 201.464 183.85L214.724 176.194L216.62 179.478L199.161 189.558C199.037 189.408 198.928 189.249 198.832 189.083C198.736 188.917 198.648 188.764 198.568 188.626C197.816 187.323 197.327 185.998 197.103 184.649C196.89 183.257 196.843 181.862 196.959 180.464C197.076 179.067 197.308 177.676 197.655 176.294C198.002 174.911 198.352 173.564 198.703 172.252C199.012 171.187 199.287 170.16 199.529 169.171C199.782 168.137 199.96 167.166 200.064 166.257C200.178 165.304 200.174 164.401 200.051 163.548C199.956 162.679 199.685 161.857 199.237 161.081C198.757 160.249 198.21 159.623 197.597 159.201C197.012 158.763 196.385 158.478 195.718 158.346C195.05 158.214 194.364 158.241 193.658 158.426C192.964 158.568 192.285 158.831 191.62 159.215C190.816 159.679 190.145 160.214 189.608 160.82C189.071 161.426 188.627 162.033 188.277 162.642C187.91 163.223 187.643 163.784 187.475 164.324C187.29 164.837 187.149 165.233 187.051 165.511L183.555 163.871C183.645 163.45 183.827 162.902 184.101 162.226C184.36 161.522 184.732 160.79 185.217 160.03C185.702 159.27 186.302 158.517 187.017 157.771C187.732 157.026 188.588 156.365 189.586 155.789C192.607 154.045 195.273 153.448 197.586 153.997C199.91 154.503 201.808 156.031 203.28 158.58Z" fill="#F9F7F7"/>
</symbol>
<!--react-->
<symbol id="icon-React" viewBox="0 0 32 32">
<path d="M16 13.148C14.425 13.148 13.148 14.425 13.148 16C13.148 17.575 14.425 18.852 16 18.852C17.575 18.852 18.852 17.575 18.852 16C18.852 14.425 17.575 13.148 16 13.148ZM8.01101 21.673L7.38201 21.513C2.69101 20.328 0.00100708 18.316 0.00100708 15.994C0.00100708 13.672 2.69201 11.661 7.38201 10.475L8.01101 10.316L8.18801 10.94C8.73301 12.8 9.35101 14.383 10.087 15.897L10.005 15.711L10.14 15.995L10.005 16.279C9.34901 17.608 8.73001 19.191 8.24401 20.83L8.18801 21.05L8.01101 21.673ZM7.08901 11.933C3.52401 12.934 1.33601 14.466 1.33601 15.994C1.33601 17.521 3.52401 19.053 7.08901 20.055C7.60101 18.435 8.13501 17.09 8.75101 15.792L8.66501 15.994C8.13401 14.896 7.59901 13.551 7.15401 12.166L7.08901 11.932V11.933ZM23.989 21.673L23.812 21.048C23.268 19.189 22.65 17.607 21.912 16.094L21.993 16.278L21.858 15.994L21.993 15.71C22.649 14.381 23.268 12.799 23.755 11.16L23.811 10.939L23.988 10.315L24.619 10.474C29.308 11.659 31.999 13.671 31.999 15.994C31.999 18.317 29.308 20.327 24.619 21.513L23.988 21.673H23.989ZM23.335 15.995C23.975 17.38 24.504 18.742 24.911 20.056C28.478 19.053 30.664 17.521 30.664 15.995C30.664 14.467 28.476 12.936 24.911 11.934C24.4 13.553 23.866 14.897 23.249 16.196L23.335 15.996V15.995ZM7.08001 11.927L6.90301 11.304C5.58401 6.65604 5.98401 3.32504 8.00001 2.16304C9.97701 1.02204 13.152 2.37004 16.479 5.78404L16.932 6.24904L16.479 6.71404C15.333 7.90404 14.272 9.19604 13.317 10.567L13.249 10.67L13.069 10.927L12.756 10.954C10.881 11.105 9.16001 11.393 7.49201 11.814L7.71001 11.767L7.08101 11.926L7.08001 11.927ZM9.60801 3.08704C9.25101 3.08704 8.93501 3.16404 8.66801 3.31804C7.34301 4.08204 7.10801 6.73804 8.02101 10.322C9.23101 10.037 10.702 9.80104 12.201 9.66404L12.332 9.65404C13.226 8.39004 14.124 7.28404 15.088 6.24004L15.068 6.26204C12.988 4.23704 11.019 3.08704 9.60801 3.08704ZM22.393 30.236C22.392 30.236 22.392 30.236 22.393 30.236C20.493 30.236 18.053 28.805 15.521 26.205L15.068 25.74L15.521 25.275C16.667 24.085 17.727 22.793 18.681 21.421L18.749 21.318L18.929 21.061L19.241 21.034C21.116 20.884 22.838 20.596 24.508 20.176L24.29 20.222L24.919 20.063L25.098 20.687C26.414 25.332 26.015 28.664 23.999 29.826C23.55 30.085 23.011 30.237 22.437 30.237C22.421 30.237 22.406 30.237 22.39 30.237H22.392L22.393 30.236ZM16.932 25.728C19.012 27.753 20.981 28.903 22.392 28.903H22.393C22.749 28.903 23.066 28.826 23.332 28.672C24.657 27.908 24.893 25.251 23.979 21.667C22.767 21.953 21.297 22.189 19.797 22.325L19.667 22.335C18.774 23.6 17.876 24.706 16.912 25.751L16.932 25.729V25.728ZM24.92 11.927L24.291 11.768C22.838 11.392 21.116 11.104 19.352 10.962L19.241 10.955L18.929 10.928L18.749 10.671C17.728 9.19704 16.667 7.90504 15.512 6.70504L15.521 6.71504L15.068 6.25004L15.521 5.78504C18.846 2.37204 22.02 1.02404 24 2.16404C26.016 3.32704 26.416 6.65704 25.099 11.304L24.92 11.928V11.927ZM19.667 9.65304C21.19 9.79204 22.636 10.017 23.979 10.321C24.894 6.73704 24.658 4.08104 23.332 3.31704C22.015 2.55604 19.539 3.72204 16.932 6.26104C17.875 7.28304 18.773 8.38904 19.598 9.55004L19.667 9.65304ZM9.60801 30.236C9.59401 30.236 9.57801 30.236 9.56201 30.236C8.98801 30.236 8.44901 30.084 7.98501 29.817L8.00001 29.825C5.98401 28.664 5.58401 25.333 6.90301 20.686L7.07901 20.062L7.70801 20.221C9.24801 20.609 10.947 20.882 12.755 21.033L13.068 21.06L13.247 21.317C14.269 22.792 15.33 24.084 16.486 25.284L16.476 25.274L16.929 25.739L16.476 26.204C13.945 28.804 11.505 30.235 9.60801 30.235V30.236ZM8.02101 21.667C7.10601 25.251 7.34201 27.908 8.66801 28.672C9.98401 29.423 12.459 28.265 15.068 25.728C14.125 24.706 13.227 23.599 12.401 22.438L12.332 22.335C10.703 22.189 9.23301 21.953 7.79801 21.624L8.02201 21.667H8.02101ZM16 22.504C14.903 22.504 13.775 22.456 12.645 22.363L12.332 22.336L12.152 22.079C11.608 21.311 11.013 20.388 10.455 19.44L10.352 19.25C9.90001 18.492 9.38101 17.518 8.90201 16.522L8.79701 16.279L8.66401 15.995L8.79701 15.711C9.38101 14.472 9.89901 13.499 10.455 12.55L10.352 12.741C10.904 11.786 11.511 10.834 12.152 9.91204L12.332 9.65504L12.645 9.62804C13.65 9.53804 14.819 9.48604 16 9.48604C17.181 9.48604 18.35 9.53804 19.505 9.63904L19.355 9.62804L19.667 9.65504L19.846 9.91204C21.023 11.578 22.14 13.479 23.098 15.472L23.202 15.712L23.337 15.996L23.202 16.28C22.144 18.512 21.026 20.413 19.763 22.205L19.846 22.08L19.667 22.337L19.355 22.364C18.226 22.457 17.096 22.505 15.999 22.505L16 22.504ZM13.071 21.059C15.044 21.207 16.956 21.207 18.931 21.059C19.935 19.614 20.909 17.955 21.758 16.223L21.859 15.995C20.912 14.037 19.937 12.378 18.847 10.805L18.93 10.931C18.053 10.86 17.032 10.82 16.001 10.82C14.97 10.82 13.949 10.86 12.938 10.939L13.072 10.931C12.064 12.378 11.089 14.037 10.242 15.771L10.143 15.995C11.094 17.955 12.069 19.614 13.157 21.188L13.072 21.058L13.071 21.059Z" fill="#F9F7F7"/>
</symbol>
<!--sass-->
<symbol id="icon-Sass" viewBox="0 0 32 32">
<path d="M16 0C24.836 0 32 7.164 32 16C32 24.836 24.836 32 16 32C7.164 32 0 24.836 0 16C0 7.164 7.164 0 16 0ZM12.82 21.331C13.053 22.191 13.028 22.995 12.788 23.72L12.701 23.96C12.669 24.041 12.632 24.12 12.597 24.195C12.41 24.582 12.162 24.942 11.857 25.275C10.926 26.287 9.628 26.671 9.07 26.348C8.47 25.999 8.769 24.568 9.849 23.428C11.01 22.204 12.676 21.416 12.676 21.416V21.412L12.82 21.331ZM26.035 6.849C25.312 4.005 20.599 3.07 16.139 4.656C13.487 5.599 10.614 7.08 8.548 9.012C6.091 11.307 5.7 13.307 5.861 14.143C6.43 17.091 10.47 19.019 12.132 20.45V20.458C11.643 20.698 8.057 22.497 7.217 24.358C6.317 26.318 7.357 27.719 8.037 27.898C10.137 28.479 12.297 27.418 13.457 25.699C14.577 24.018 14.478 21.858 13.996 20.798C14.657 20.618 15.436 20.538 16.436 20.659C19.237 20.979 19.797 22.739 19.676 23.459C19.556 24.178 18.979 24.598 18.777 24.718C18.577 24.839 18.517 24.878 18.536 24.959C18.556 25.079 18.657 25.079 18.816 25.059C19.036 25.019 20.277 24.459 20.337 23.098C20.397 21.378 18.756 19.459 15.837 19.498C14.637 19.519 13.876 19.619 13.337 19.839C13.297 19.779 13.256 19.739 13.197 19.699C11.397 17.759 8.057 16.399 8.197 13.819C8.237 12.879 8.577 10.4 14.597 7.4C19.537 4.939 23.478 5.62 24.158 7.12C25.135 9.259 22.057 13.24 16.917 13.819C14.957 14.039 13.937 13.28 13.676 12.999C13.397 12.699 13.357 12.679 13.257 12.74C13.097 12.82 13.197 13.08 13.257 13.24C13.417 13.64 14.037 14.34 15.118 14.7C16.057 15 18.358 15.179 21.118 14.1C24.217 12.901 26.637 9.56 25.937 6.76L26.034 6.849H26.035Z" fill="#F9F7F7"/>
</symbol>
<!--Node.js-->
<symbol id="icon-Node-js" viewBox="0 0 32 32">
<path fill="#F9F7F7" d="M15.247 0.204l-12.493 7.24c-0.467 0.271-0.752 0.771-0.751 1.311v14.485c0 0.539 0.287 1.040 0.752 1.309l12.493 7.247c0.467 0.271 1.040 0.271 1.507 0l12.488-7.244c0.467-0.273 0.752-0.771 0.753-1.309v-14.488c0-0.539-0.288-1.040-0.755-1.312l-12.485-7.24c-0.467-0.271-1.043-0.271-1.507 0z"></path>
</symbol>
<!--JavaScript-->
<symbol id="icon-JavaScript" viewBox="0 0 32 32">
<path fill="#F9F7F7" style="fill: #F9F7F7" d="M0 0h32v32h-32v-32zM29.379 24.368c-0.233-1.46-1.184-2.687-4.004-3.831-0.981-0.46-2.072-0.78-2.396-1.52-0.121-0.44-0.14-0.68-0.061-0.94 0.2-0.861 1.22-1.12 2.020-0.88 0.52 0.16 1 0.56 1.301 1.2 1.379-0.901 1.379-0.901 2.34-1.5-0.36-0.56-0.539-0.801-0.781-1.040-0.84-0.94-1.959-1.42-3.779-1.379l-0.94 0.119c-0.901 0.22-1.76 0.7-2.28 1.34-1.52 1.721-1.081 4.721 0.759 5.961 1.82 1.36 4.481 1.659 4.821 2.94 0.32 1.56-1.16 2.060-2.621 1.88-1.081-0.24-1.68-0.781-2.34-1.781l-2.44 1.401c0.28 0.64 0.6 0.919 1.080 1.479 2.32 2.341 8.12 2.221 9.161-1.339 0.039-0.12 0.32-0.94 0.099-2.2l0.061 0.089zM17.401 14.708h-2.997c0 2.584-0.012 5.152-0.012 7.74 0 1.643 0.084 3.151-0.184 3.615-0.44 0.919-1.573 0.801-2.088 0.64-0.528-0.261-0.796-0.621-1.107-1.14-0.084-0.14-0.147-0.261-0.169-0.261l-2.433 1.5c0.407 0.84 1 1.563 1.765 2.023 1.14 0.68 2.672 0.9 4.276 0.54 1.044-0.301 1.944-0.921 2.415-1.881 0.68-1.24 0.536-2.76 0.529-4.461 0.016-2.739 0-5.479 0-8.239l0.005-0.075z"></path>
</symbol>
</svg>

